<svg width="276" height="77" viewBox="0 0 276 77" fill="none" xmlns="http://www.w3.org/2000/svg">
<path d="M264.851 22.0206V39.8064C264.851 40.4786 264.865 41.1911 264.892 41.9439C264.919 42.6699 264.959 43.3824 265.013 44.0814C265.093 44.7805 265.214 45.4661 265.376 46.1383C265.564 46.7836 265.806 47.3617 266.102 47.8725C266.505 48.5716 267.016 49.0959 267.634 49.4454C268.253 49.7681 268.871 49.9294 269.49 49.9294C269.973 49.9294 270.377 49.8353 270.699 49.6471C271.022 49.432 271.291 49.0959 271.506 48.6388C271.748 48.1817 271.936 47.6037 272.071 46.9046C272.232 46.1786 272.393 45.3048 272.555 44.2831C273.523 44.4982 274.262 44.8074 274.773 45.2107C275.311 45.5871 275.579 46.0845 275.579 46.7029C275.579 47.1331 275.512 47.5902 275.378 48.0742C275.243 48.5313 275.042 49.0018 274.773 49.4857C274.504 49.9697 274.181 50.4537 273.805 50.9377C273.428 51.4216 272.998 51.8653 272.514 52.2686C271.493 53.1558 270.242 53.8818 268.764 54.4464C267.312 54.9842 265.658 55.253 263.803 55.253C262.727 55.253 261.665 55.132 260.617 54.8901C259.568 54.6212 258.6 54.2313 257.713 53.7205C256.826 53.1827 256.046 52.5106 255.374 51.7039C254.728 50.8973 254.231 49.9159 253.882 48.7598V22.0206L246.662 22.8272C246.662 21.2408 246.904 20.0578 247.388 19.2781C247.899 18.4984 248.679 18.1085 249.727 18.1085L253.882 18.5118V17.9068C253.882 17.1002 253.855 16.3339 253.801 15.608C253.774 14.8551 253.761 14.2233 253.761 13.7124C253.761 12.6638 253.895 11.6825 254.164 10.7683C254.433 9.82726 254.997 8.98032 255.858 8.22748C256.745 7.47464 258.009 6.8159 259.649 6.25127C261.316 5.68664 263.534 5.25645 266.303 4.96069C265.819 6.97723 265.456 9.0072 265.214 11.0506C264.972 13.094 264.851 15.1375 264.851 17.1809V18.5118L275.136 17.5842C275.136 19.1436 274.894 20.4208 274.41 21.4156C273.953 22.3835 273.173 22.8675 272.071 22.8675L264.851 22.0206Z" fill="white"/>
<path d="M222.464 34.2408C222.464 34.3214 222.464 34.4155 222.464 34.5231C222.491 34.6306 222.504 34.7247 222.504 34.8054C222.585 36.7413 222.881 38.6234 223.392 40.4517C223.929 42.2531 224.723 43.8664 225.771 45.2914C226.847 46.6895 228.204 47.8188 229.845 48.6791C231.512 49.5126 233.501 49.9294 235.813 49.9294C236.593 49.9294 237.238 49.795 237.749 49.5261C238.26 49.2572 238.69 48.8808 239.04 48.3968C239.389 47.886 239.685 47.2676 239.927 46.5416C240.196 45.8157 240.451 44.9822 240.693 44.0411C241.446 44.1756 242.105 44.4175 242.67 44.7671C243.234 45.0897 243.517 45.5871 243.517 46.2593C243.517 46.9046 243.248 47.7381 242.71 48.7598C242.172 49.7546 241.339 50.736 240.21 51.7039C239.08 52.6719 237.642 53.5054 235.894 54.2044C234.146 54.9035 232.076 55.253 229.683 55.253C226.537 55.253 223.795 54.7422 221.456 53.7205C219.143 52.6719 217.234 51.3141 215.729 49.6471C214.223 47.9532 213.094 46.0173 212.341 43.8395C211.615 41.6347 211.252 39.3762 211.252 37.0639C211.252 35.5851 211.373 34.1467 211.615 32.7485C211.884 31.3235 212.274 29.9657 212.785 28.6751C213.296 27.3845 213.927 26.1746 214.68 25.0454C215.433 23.9161 216.307 22.8944 217.302 21.9802C218.888 20.4477 220.716 19.2781 222.787 18.4715C224.857 17.638 227.021 17.2212 229.28 17.2212C231.135 17.2212 232.896 17.517 234.563 18.1085C236.23 18.7 237.749 19.5738 239.121 20.73C240.492 21.8861 241.675 23.2977 242.67 24.9647C243.691 26.6048 244.458 28.4735 244.969 30.5707C244.7 30.974 244.229 31.337 243.557 31.6596C242.885 31.9822 241.984 32.278 240.855 32.5469C239.726 32.8157 238.354 33.0443 236.741 33.2325C235.128 33.4207 233.232 33.5955 231.054 33.7568L222.464 34.2408ZM222.464 31.6999L230.49 30.732C231.512 30.5976 232.211 30.3959 232.587 30.127C232.963 29.8313 233.152 29.4817 233.152 29.0784C233.152 28.3525 232.95 27.5324 232.547 26.6183C232.17 25.6772 231.673 24.7899 231.054 23.9564C230.436 23.0961 229.724 22.3835 228.917 21.8189C228.137 21.2274 227.344 20.9316 226.537 20.9316C225.946 20.9316 225.408 21.214 224.924 21.7786C224.467 22.3163 224.064 23.0692 223.714 24.0371C223.365 25.005 223.082 26.1477 222.867 27.4652C222.652 28.7558 222.518 30.1674 222.464 31.6999Z" fill="white"/>
<path d="M166.041 76.3056L166.606 73.6438C167.09 73.4018 167.507 73.0926 167.856 72.7162C168.233 72.3398 168.542 71.8289 168.784 71.1837C169.026 70.5384 169.201 69.7183 169.308 68.7235C169.416 67.7287 169.469 66.4918 169.469 65.0131V20.73L164.226 21.214V20.004C164.226 19.063 164.495 18.4311 165.033 18.1085C165.571 17.759 166.176 17.5842 166.848 17.5842H180.52C180.224 18.2833 179.969 19.0495 179.754 19.883C179.539 20.6897 179.364 21.6441 179.229 22.7465H179.633C180.843 20.8375 182.429 19.4394 184.392 18.5521C186.381 17.6649 188.465 17.2212 190.643 17.2212C192.498 17.2212 194.327 17.5573 196.128 18.2295C197.929 18.9017 199.543 19.9503 200.968 21.3753C202.393 22.7734 203.535 24.548 204.396 26.6989C205.283 28.823 205.727 31.3638 205.727 34.3214C205.727 37.8705 205.176 40.9625 204.073 43.5975C202.998 46.2055 201.573 48.3834 199.798 50.131C198.05 51.8518 196.074 53.1424 193.869 54.0028C191.692 54.8363 189.5 55.253 187.296 55.253C186.005 55.253 184.755 55.1186 183.545 54.8497C182.362 54.5809 181.233 54.1641 180.157 53.5995C180.265 54.6212 180.332 55.6832 180.359 56.7856C180.412 57.9149 180.439 59.0845 180.439 60.2944V73.0792L186.368 72.6759V73.8455C186.368 74.7865 186.099 75.4318 185.561 75.7813C185.024 76.1309 184.419 76.3056 183.746 76.3056H166.041ZM183.827 22.7465C182.563 22.7465 181.676 23.0826 181.165 23.7548C180.681 24.427 180.439 25.1932 180.439 26.0536V43.0328C180.439 44.4848 180.614 45.7081 180.964 46.7029C181.34 47.6978 181.824 48.4909 182.416 49.0824C183.007 49.674 183.679 50.1042 184.432 50.373C185.185 50.615 185.965 50.736 186.771 50.736C188.169 50.736 189.352 50.3865 190.32 49.6874C191.315 48.9883 192.122 48.0607 192.74 46.9046C193.386 45.7484 193.843 44.4041 194.111 42.8715C194.407 41.339 194.555 39.7392 194.555 38.0722C194.555 35.9212 194.3 33.9181 193.789 32.0629C193.278 30.1808 192.552 28.5541 191.611 27.1829C190.67 25.8117 189.527 24.7362 188.183 23.9564C186.865 23.1498 185.413 22.7465 183.827 22.7465Z" fill="white"/>
<path d="M149.949 10.8489C149.089 10.8489 148.296 10.728 147.57 10.486C146.871 10.2171 146.266 9.85413 145.755 9.39705C145.244 8.93996 144.854 8.40222 144.585 7.78382C144.317 7.16542 144.182 6.47979 144.182 5.72695C144.182 5.001 144.37 4.30194 144.747 3.62976C145.123 2.93069 145.634 2.31229 146.279 1.77455C146.925 1.23681 147.651 0.806613 148.457 0.483967C149.264 0.161322 150.111 0 150.998 0C151.858 0 152.638 0.120993 153.337 0.362977C154.063 0.604961 154.668 0.954492 155.152 1.41157C155.663 1.86865 156.053 2.4064 156.322 3.0248C156.617 3.61632 156.765 4.28849 156.765 5.04133C156.765 5.79417 156.564 6.52012 156.16 7.21919C155.784 7.91825 155.273 8.53666 154.628 9.0744C154.009 9.58525 153.297 10.0154 152.49 10.365C151.684 10.6876 150.837 10.8489 149.949 10.8489ZM145.432 20.73L140.189 21.2139V20.004C140.189 19.063 140.458 18.4311 140.996 18.1085C141.534 17.7589 142.139 17.5842 142.811 17.5842H158.056C157.787 18.1757 157.545 18.821 157.33 19.52C157.142 20.2191 156.98 21.0123 156.846 21.8995C156.712 22.7599 156.604 23.7548 156.523 24.884C156.443 25.9864 156.402 27.2501 156.402 28.6751V51.6636L162.331 51.2603V52.4299C162.331 53.3709 162.062 54.0162 161.524 54.3657C160.987 54.7153 160.382 54.89 159.709 54.89H142.004L142.529 52.2282C143.013 51.9862 143.429 51.677 143.779 51.3006C144.155 50.9242 144.465 50.4133 144.706 49.768C144.948 49.1227 145.123 48.3027 145.231 47.3079C145.365 46.313 145.432 45.0762 145.432 43.5974V20.73Z" fill="white"/>
<path d="M132.688 17.2212C133.629 17.2212 134.422 17.3825 135.067 17.7052C135.739 18.0278 136.277 18.458 136.681 18.9958C137.084 19.5066 137.38 20.0847 137.568 20.73C137.756 21.3484 137.85 21.9802 137.85 22.6255C137.85 23.3246 137.756 24.0237 137.568 24.7227C137.38 25.3949 137.07 25.9999 136.64 26.5376C136.237 27.0753 135.713 27.519 135.067 27.8685C134.449 28.1912 133.696 28.3525 132.809 28.3525C131.895 28.3525 131.088 28.2046 130.389 27.9088C129.717 27.5862 129.112 27.2501 128.574 26.9006C128.036 26.5242 127.552 26.1881 127.122 25.8923C126.692 25.5697 126.262 25.4083 125.832 25.4083C125.509 25.4083 125.186 25.5025 124.864 25.6907C124.568 25.8789 124.299 26.1746 124.057 26.5779C123.842 26.9812 123.667 27.4921 123.533 28.1105C123.398 28.7289 123.331 29.4817 123.331 30.369V51.6636L129.623 51.2603V52.4299C129.623 53.3709 129.354 54.0162 128.816 54.3658C128.278 54.7153 127.673 54.8901 127.001 54.8901H108.933L109.457 52.2282C109.941 51.9863 110.358 51.677 110.708 51.3006C111.084 50.9242 111.393 50.4134 111.635 49.7681C111.877 49.1228 112.052 48.3027 112.16 47.3079C112.294 46.3131 112.361 45.0763 112.361 43.5975V20.73L107.118 21.214V20.004C107.118 19.063 107.387 18.4311 107.925 18.1085C108.463 17.759 109.067 17.5842 109.74 17.5842H123.936C123.775 18.0144 123.627 18.5252 123.492 19.1168C123.358 19.6814 123.224 20.2729 123.089 20.8913C122.982 21.4828 122.887 22.0743 122.807 22.6659C122.753 23.2574 122.713 23.7951 122.686 24.2791H123.089C123.573 23.338 124.138 22.4508 124.783 21.6173C125.455 20.7569 126.195 20.004 127.001 19.3587C127.808 18.7135 128.682 18.2026 129.623 17.8262C130.591 17.4229 131.612 17.2212 132.688 17.2212Z" fill="white"/>
<path d="M38.0721 51.6636L42.2665 51.4216V52.4299C42.2665 53.3709 41.9977 54.0162 41.4599 54.3658C40.9222 54.7153 40.3172 54.8901 39.645 54.8901H23.6741L24.1984 52.2282C24.6824 51.9863 25.0991 51.677 25.4486 51.3006C25.7982 50.9242 26.0939 50.4134 26.3359 49.7681C26.5779 49.1228 26.7661 48.3027 26.9006 47.3079C27.035 46.3131 27.1022 45.0763 27.1022 43.5975V36.1363C27.1022 34.7382 27.0753 33.5148 27.0215 32.4662C26.9678 31.3907 26.8737 30.4228 26.7392 29.5624C26.6048 28.702 26.4031 27.9492 26.1343 27.3039C25.8654 26.6317 25.5024 25.9999 25.0453 25.4083C24.4269 24.5748 23.6338 23.9296 22.6658 23.4725C21.7248 22.9885 20.6493 22.7465 19.4394 22.7465C18.7941 22.7465 18.2563 22.8272 17.8262 22.9885C17.4228 23.1498 17.1002 23.3649 16.8582 23.6338C16.6162 23.9027 16.4415 24.2119 16.3339 24.5614C16.2533 24.9109 16.2129 25.2874 16.2129 25.6907V51.6636L20.4073 51.4216V52.4299C20.4073 53.3709 20.1384 54.0162 19.6007 54.3658C19.063 54.7153 18.458 54.8901 17.7858 54.8901H1.81488L2.33918 52.2282C2.82315 51.9863 3.2399 51.677 3.58943 51.3006C3.96585 50.9242 4.27505 50.4134 4.51703 49.7681C4.75902 49.1228 4.93378 48.3027 5.04133 47.3079C5.17577 46.3131 5.24299 45.0763 5.24299 43.5975V20.73L0 21.214V20.004C0 19.063 0.268871 18.4311 0.806613 18.1085C1.34436 17.759 1.94932 17.5842 2.62149 17.5842H16.2936C15.9978 18.2833 15.7424 19.0495 15.5273 19.883C15.3122 20.6897 15.1374 21.6441 15.003 22.7465H15.4063C16.5087 21.0257 17.9875 19.6814 19.8427 18.7135C21.7248 17.7186 23.9161 17.2212 26.4166 17.2212C27.3845 17.2212 28.3525 17.3288 29.3204 17.5439C30.2883 17.759 31.2159 18.0951 32.1032 18.5521C32.9905 18.9823 33.8105 19.547 34.5634 20.246C35.3162 20.9451 35.9615 21.7786 36.4993 22.7465H36.8622C37.9915 21.0257 39.4703 19.6814 41.2986 18.7135C43.1538 17.7186 45.4123 17.2212 48.0742 17.2212C49.4992 17.2212 50.9242 17.4498 52.3492 17.9068C53.7742 18.3639 55.0379 19.0899 56.1403 20.0847C57.2695 21.0526 58.1837 22.3298 58.8828 23.9161C59.5818 25.5025 59.9314 27.4249 59.9314 29.6834V51.6636L65.86 51.2603V52.4299C65.86 53.3709 65.5911 54.0162 65.0534 54.3658C64.5156 54.7153 63.9107 54.8901 63.2385 54.8901H45.5333L46.0576 52.2282C46.5416 51.9863 46.9583 51.677 47.3079 51.3006C47.6574 50.9242 47.9532 50.4134 48.1951 49.7681C48.4371 49.1228 48.6253 48.3027 48.7598 47.3079C48.8942 46.3131 48.9614 45.0763 48.9614 43.5975V36.1363C48.9614 34.7382 48.9345 33.5148 48.8808 32.4662C48.827 31.3907 48.7329 30.4228 48.5984 29.5624C48.464 28.702 48.2624 27.9492 47.9935 27.3039C47.7246 26.6317 47.3616 25.9999 46.9046 25.4083C46.2862 24.5748 45.493 23.9296 44.5251 23.4725C43.584 22.9885 42.5085 22.7465 41.2986 22.7465C40.6802 22.7465 40.1559 22.8406 39.7257 23.0288C39.3224 23.1902 38.9998 23.4187 38.7578 23.7145C38.5158 23.9833 38.341 24.306 38.2335 24.6824C38.1259 25.0588 38.0721 25.4487 38.0721 25.852V51.6636Z" fill="white"/>
<path d="M86.4899 24.2182C86.5866 25.288 86.8452 26.2848 87.2658 27.2085C87.6863 28.1322 88.3151 28.9068 89.1521 29.5322C89.9891 30.1576 90.9442 30.4218 92.0174 30.3247C93.3546 30.2039 94.5222 29.5815 95.5204 28.4576C96.5185 27.3337 97.2186 26.0525 97.6207 24.614C98.0228 23.1755 98.165 21.8055 98.0473 20.5038C97.9506 19.434 97.692 18.4372 97.2715 17.5135C96.8509 16.5898 96.2222 15.8152 95.3852 15.1898C94.5481 14.5644 93.593 14.3002 92.5198 14.3973C91.165 14.5197 89.993 15.1425 89.0037 16.2656C88.0143 17.3887 87.3182 18.665 86.9153 20.0946C86.5124 21.5242 86.3706 22.8987 86.4899 24.2182ZM96.6835 36.3204C96.8125 37.7469 97.294 38.9527 98.1281 39.9379C98.9621 40.9231 100.057 41.3544 101.411 41.232C102.748 41.1111 103.948 40.5037 105.011 39.41C106.074 38.3162 106.851 37.0461 107.341 35.5996C107.831 34.1532 108.016 32.7702 107.897 31.4507C107.768 30.0243 107.286 28.814 106.451 27.8199C105.616 26.8258 104.522 26.39 103.167 26.5124C101.83 26.6333 100.63 27.2407 99.5668 28.3345C98.5038 29.4282 97.7277 30.7028 97.2385 32.1582C96.7492 33.6135 96.5643 35.001 96.6835 36.3204ZM86.2202 36.5383C84.1441 36.726 81.9794 37.7981 79.7262 39.7545C77.473 41.7109 75.6495 44.0059 74.2557 46.6396C72.8619 49.2733 72.2577 51.6154 72.4431 53.6659C72.5172 54.4861 72.7284 55.1546 73.0767 55.6714C73.425 56.1882 73.8879 56.5508 74.4655 56.7593C75.0431 56.9677 75.6266 57.0947 76.2161 57.1403C76.8056 57.1859 77.4786 57.1745 78.2351 57.1061C79.4315 56.9979 81.0447 56.4476 83.0746 55.4552C85.1046 54.4627 86.6738 53.9164 87.7822 53.8162C88.9434 53.7112 90.6727 53.9548 92.9701 54.5471C95.2675 55.1393 97.0671 55.3766 98.3691 55.2589C101.589 54.9678 103.081 53.5206 102.846 50.9173C102.707 49.3839 102.06 47.7212 100.905 45.9291C99.7494 44.1371 98.367 42.5318 96.7577 41.1134C95.1483 39.695 93.3812 38.5424 91.4563 37.6559C89.5314 36.7693 87.786 36.3968 86.2202 36.5383ZM79.4025 31.4652C80.4757 31.3682 81.368 30.937 82.0793 30.1716C82.7905 29.4062 83.2702 28.5315 83.5182 27.5473C83.7663 26.5631 83.8419 25.5362 83.7452 24.4663C83.6259 23.1469 83.2399 21.8201 82.5872 20.4859C81.9344 19.1518 81.0207 18.021 79.8459 17.0935C78.6712 16.1661 77.4065 15.7636 76.0517 15.8861C74.9785 15.9831 74.0862 16.4143 73.375 17.1797C72.6637 17.9451 72.184 18.8199 71.936 19.804C71.6879 20.7882 71.6123 21.8152 71.709 22.885C71.8267 24.1866 72.2123 25.509 72.8659 26.852C73.5194 28.1951 74.438 29.33 75.6215 30.2566C76.805 31.1832 78.0653 31.5861 79.4025 31.4652ZM67.7501 29.7144C66.3953 29.8369 65.3964 30.462 64.7534 31.5897C64.1103 32.7174 63.8533 33.9945 63.9823 35.4209C64.1016 36.7404 64.532 38.0677 65.2735 39.4028C66.015 40.7379 67.0067 41.8482 68.2486 42.7336C69.4905 43.619 70.78 44.0012 72.1171 43.8804C73.4719 43.7579 74.4712 43.1372 75.115 42.0184C75.7589 40.8996 76.0163 39.627 75.8874 38.2005C75.7681 36.8811 75.3373 35.5493 74.5949 34.2053C73.8526 32.8613 72.8605 31.7466 71.6186 30.8612C70.3767 29.9757 69.0872 29.5935 67.7501 29.7144Z" fill="white"/>
</svg>
